<svg xmlns="http://www.w3.org/2000/svg"
viewBox = "0 0 1600 1600"
width="32"
height="32">
<g fill="None" fill-opacity="0.0" stroke="#000000" stroke-opacity="1.00" stroke-width="0.3"><path d="
M 0.00 1600.00 
L 1600.00 1600.00
L 1600.00 0.00
L 0.00 0.00
L 0.00 1600.00
M 1181.00 532.00 
C 1185.09 539.16 1189.73 545.57 1194.25 552.75 C 1198.78 559.92 1202.70 567.58 1206.92 575.08 C 1211.14 582.57 1215.30 590.13 1218.92 598.08 C 1222.55 606.02 1226.55 612.91 1229.77 621.23 C 1232.99 629.54 1236.20 638.31 1238.98 647.02 C 1241.75 655.74 1245.68 664.39 1247.33 673.67 C 1248.97 682.96 1251.71 691.94 1262.07 692.93 C 1272.43 693.91 1280.34 698.10 1290.07 699.93 C 1299.80 701.75 1308.57 704.93 1318.02 706.98 C 1327.48 709.02 1335.76 711.69 1345.07 713.93 C 1354.39 716.16 1363.76 718.60 1373.02 720.98 C 1382.28 723.35 1391.82 725.56 1401.02 727.98 C 1410.23 730.39 1418.86 732.47 1428.02 734.98 C 1437.19 737.48 1446.94 739.13 1456.02 741.98 C 1465.11 744.82 1474.91 746.35 1484.01 748.99 C 1493.10 751.63 1502.03 753.12 1511.01 755.99 C 1519.98 758.87 1530.26 759.61 1539.01 762.99 C 1547.76 766.38 1558.58 765.41 1566.67 770.33 C 1574.77 775.24 1556.90 781.72 1549.78 782.78 C 1542.65 783.83 1531.03 788.94 1522.93 790.93 C 1514.82 792.91 1504.43 796.37 1495.93 798.93 C 1487.43 801.48 1477.65 804.41 1468.93 806.93 C 1460.21 809.45 1451.79 812.52 1442.93 814.93 C 1434.06 817.33 1424.72 820.06 1415.93 822.93 C 1407.13 825.79 1397.71 828.12 1388.93 830.93 C 1380.15 833.73 1371.71 836.30 1362.93 838.93 C 1354.14 841.55 1344.52 843.98 1335.93 846.93 C 1327.33 849.88 1317.14 851.72 1308.93 854.93 C 1300.71 858.14 1290.25 858.92 1282.93 862.93 C 1275.60 866.93 1261.25 864.50 1257.23 872.23 C 1253.22 879.97 1254.84 893.25 1251.67 901.67 C 1248.51 910.09 1246.84 919.47 1244.07 928.07 C 1241.31 936.68 1238.38 945.82 1235.22 954.22 C 1232.07 962.63 1228.84 971.20 1225.22 979.22 C 1221.60 987.25 1218.18 994.52 1214.23 1002.23 C 1210.27 1009.94 1206.53 1017.80 1202.08 1025.08 C 1197.62 1032.35 1193.31 1039.71 1188.70 1046.70 C 1184.08 1053.69 1179.40 1059.90 1174.70 1066.70 C 1169.99 1073.49 1164.30 1079.73 1159.25 1086.25 C 1154.20 1092.76 1148.24 1098.56 1142.75 1104.75 C 1137.26 1110.95 1131.83 1116.94 1125.75 1122.75 C 1119.67 1128.56 1114.17 1133.46 1107.92 1138.92 C 1101.67 1144.38 1095.36 1149.79 1088.75 1154.75 C 1082.15 1159.72 1075.67 1165.11 1068.75 1169.75 C 1061.83 1174.39 1055.33 1178.57 1048.25 1183.25 C 1041.18 1187.94 1033.49 1191.75 1025.92 1195.92 C 1018.36 1200.10 1010.74 1204.21 1002.77 1207.77 C 994.80 1211.33 987.69 1215.18 979.31 1218.31 C 970.93 1221.43 962.54 1224.85 953.78 1227.78 C 945.01 1230.70 936.22 1233.64 926.93 1235.93 C 917.63 1238.21 909.11 1241.01 899.00 1242.00 C 888.88 1242.99 879.85 1246.29 879.07 1257.07 C 878.30 1267.85 873.67 1275.10 872.02 1285.02 C 870.38 1294.95 867.23 1302.60 865.07 1312.07 C 862.92 1321.55 860.42 1330.72 858.02 1340.02 C 855.62 1349.33 853.54 1358.86 851.02 1368.02 C 848.51 1377.19 846.54 1385.94 844.02 1395.02 C 841.51 1404.11 839.76 1414.11 837.02 1423.02 C 834.29 1431.94 832.72 1442.39 830.01 1451.01 C 827.30 1459.62 827.54 1472.41 819.00 1475.00
C 796.90 1399.17 773.85 1323.65 751.00 1248.00
C 739.31 1247.44 727.13 1244.08 715.93 1242.07 C 704.72 1240.06 693.56 1237.15 682.93 1234.07 C 672.30 1231.00 661.88 1227.94 651.78 1224.22 C 641.67 1220.51 632.28 1216.70 622.77 1212.23 C 613.26 1207.76 603.84 1204.05 594.92 1199.08 C 586.00 1194.11 577.07 1189.88 568.77 1184.23 C 560.47 1178.58 551.97 1173.85 543.92 1168.08 C 535.87 1162.31 528.52 1156.25 520.75 1150.25 C 512.98 1144.25 506.03 1138.07 498.75 1131.25 C 491.48 1124.43 484.40 1118.16 478.10 1110.90 C 471.80 1103.64 464.50 1096.99 458.70 1089.30 C 452.90 1081.62 445.82 1074.77 440.25 1066.75 C 434.67 1058.74 429.17 1050.57 423.75 1042.25 C 418.32 1033.94 413.33 1025.53 408.23 1016.77 C 403.13 1008.01 399.16 998.60 394.68 989.32 C 390.19 980.04 386.33 970.41 382.22 960.78 C 378.12 951.14 375.62 940.15 371.68 930.32 C 367.74 920.49 366.73 907.73 363.01 897.99 C 359.28 888.25 362.35 871.66 352.99 867.01 C 343.63 862.36 331.06 861.76 320.78 858.22 C 310.50 854.69 297.59 853.27 286.99 850.01 C 276.39 846.75 265.13 844.50 254.33 841.67 C 243.53 838.85 232.80 835.78 221.93 833.07 C 211.06 830.37 199.81 827.86 188.99 825.01 C 178.18 822.15 167.21 819.14 156.33 816.67 C 145.45 814.21 134.78 810.27 123.93 808.07 C 113.07 805.88 101.74 801.73 90.99 800.01 C 80.25 798.28 69.14 792.27 58.78 791.22 C 48.42 790.17 30.45 783.77 43.22 778.22 C 55.99 772.67 63.45 773.14 75.02 769.02 C 86.59 764.91 95.26 762.88 106.22 759.22 C 117.18 755.56 127.30 753.37 138.02 750.02 C 148.75 746.68 158.64 743.51 169.22 740.22 C 179.81 736.94 190.56 734.47 201.02 731.02 C 211.49 727.58 222.15 724.85 232.67 721.67 C 243.20 718.49 253.50 715.06 264.07 712.07 C 274.65 709.09 285.09 705.64 295.68 702.68 C 306.27 699.72 316.44 695.97 327.07 693.07 C 337.71 690.18 348.01 686.66 358.68 683.68 C 369.35 680.69 369.43 666.71 372.93 656.93 C 376.43 647.14 379.53 635.40 383.92 625.92 C 388.32 616.44 391.25 606.34 396.31 597.31 C 401.36 588.27 404.89 578.90 410.31 570.31 C 415.72 561.71 420.06 553.08 425.92 544.92 C 431.77 536.76 440.18 528.03 431.70 520.30 C 423.21 512.58 420.23 505.54 413.08 497.92 C 405.94 490.30 401.14 482.91 394.70 475.30 C 388.26 467.69 382.11 460.52 376.08 452.92 C 370.06 445.31 363.29 438.15 357.25 430.75 C 351.21 423.36 345.00 415.06 339.08 407.92 C 333.16 400.78 326.08 392.28 320.25 385.75 C 314.42 379.23 307.36 368.34 302.08 362.92 C 296.80 357.50 282.76 342.03 293.22 342.78 C 303.69 343.53 313.45 350.93 323.68 353.32 C 333.91 355.71 343.78 361.21 354.02 363.98 C 364.27 366.74 373.81 372.05 384.07 374.93 C 394.34 377.80 404.05 382.46 414.22 385.78 C 424.39 389.09 434.64 392.56 444.68 396.32 C 454.72 400.08 464.87 403.47 475.02 406.98 C 485.18 410.48 494.89 414.35 505.07 417.93 C 515.26 421.50 525.92 424.93 536.00 429.00
C 543.03 422.80 550.84 418.05 558.75 412.75 C 566.65 407.44 574.72 402.90 583.08 398.08 C 591.43 393.26 599.82 389.03 608.69 384.69 C 617.57 380.36 627.44 376.43 636.67 372.67 C 645.91 368.91 655.52 365.23 665.02 362.02 C 674.53 358.82 685.59 356.02 695.02 353.02 C 704.45 350.03 719.03 351.55 721.92 340.92 C 724.81 330.30 727.08 319.44 729.99 308.99 C 732.91 298.54 735.84 288.78 738.33 278.33 C 740.81 267.87 744.20 258.31 746.93 247.93 C 749.65 237.54 751.81 227.32 754.98 216.98 C 758.14 206.63 759.86 195.43 762.99 184.99 C 766.13 174.55 768.25 164.95 771.32 154.32 C 774.39 143.69 775.82 134.32 779.33 123.33 C 782.83 112.34 782.90 104.12 787.33 92.33 C 791.76 80.54 798.03 100.27 799.93 109.07 C 801.82 117.88 806.40 129.60 808.98 139.02 C 811.56 148.45 815.62 158.85 818.32 168.68 C 821.02 178.51 824.90 189.29 827.78 199.22 C 830.65 209.15 833.78 219.22 836.93 229.07 C 840.07 238.93 842.47 249.29 845.98 259.02 C 849.48 268.76 851.87 279.23 854.99 289.01 C 858.11 298.78 861.48 309.79 864.78 319.22 C 868.07 328.66 867.58 343.02 878.67 344.33 C 889.76 345.64 900.48 348.69 911.07 350.93 C 921.67 353.17 931.98 355.82 942.02 358.98 C 952.07 362.13 962.11 365.59 971.68 369.32 C 981.25 373.05 990.20 376.38 999.22 380.78 C 1008.25 385.17 1016.61 388.78 1025.08 393.92 C 1033.55 399.05 1041.83 401.65 1049.75 408.25 C 1057.66 414.86 1066.50 415.77 1074.23 423.77 C 1081.96 431.77 1090.01 429.49 1099.23 424.23 C 1108.45 418.97 1117.55 417.39 1126.69 412.70 C 1135.84 408.00 1145.56 405.10 1154.70 400.69 C 1163.83 396.29 1172.96 393.30 1182.08 389.08 C 1191.19 384.85 1200.06 381.25 1209.23 377.23 C 1218.40 373.21 1227.45 369.70 1236.68 365.68 C 1245.90 361.65 1255.25 357.42 1264.69 353.69 C 1274.14 349.97 1282.26 345.32 1292.07 342.07 C 1301.88 338.83 1308.56 332.45 1319.22 330.22 C 1329.88 328.00 1318.37 343.20 1313.25 349.25 C 1308.13 355.29 1302.28 365.98 1296.75 372.75 C 1291.21 379.51 1285.80 388.05 1280.25 395.25 C 1274.69 402.44 1269.80 410.79 1264.08 418.08 C 1258.36 425.37 1253.38 433.28 1247.75 440.75 C 1242.12 448.21 1236.63 456.54 1231.08 464.08 C 1225.54 471.62 1220.05 479.09 1214.70 486.70 C 1209.34 494.30 1203.58 501.63 1198.23 509.23 C 1192.88 516.83 1187.54 524.40 1181.75 531.75 Z"/>
</g>
<g fill="None" fill-opacity="0.0" stroke="#FFFFFF" stroke-opacity="1.00" stroke-width="0.3"><path d="
M 1181.75 531.75 
C 1187.54 524.40 1192.88 516.83 1198.23 509.23 C 1203.58 501.63 1209.34 494.30 1214.70 486.70 C 1220.05 479.09 1225.54 471.62 1231.08 464.08 C 1236.63 456.54 1242.12 448.21 1247.75 440.75 C 1253.38 433.28 1258.36 425.37 1264.08 418.08 C 1269.80 410.79 1274.69 402.44 1280.25 395.25 C 1285.80 388.05 1291.21 379.51 1296.75 372.75 C 1302.28 365.98 1308.13 355.29 1313.25 349.25 C 1318.37 343.20 1329.88 328.00 1319.22 330.22 C 1308.56 332.45 1301.88 338.83 1292.07 342.07 C 1282.26 345.32 1274.14 349.97 1264.69 353.69 C 1255.25 357.42 1245.90 361.65 1236.68 365.68 C 1227.45 369.70 1218.40 373.21 1209.23 377.23 C 1200.06 381.25 1191.19 384.85 1182.08 389.08 C 1172.96 393.30 1163.83 396.29 1154.70 400.69 C 1145.56 405.10 1135.84 408.00 1126.69 412.70 C 1117.55 417.39 1108.45 418.97 1099.23 424.23 C 1090.01 429.49 1081.96 431.77 1074.23 423.77 C 1066.50 415.77 1057.66 414.86 1049.75 408.25 C 1041.83 401.65 1033.55 399.05 1025.08 393.92 C 1016.61 388.78 1008.25 385.17 999.22 380.78 C 990.20 376.38 981.25 373.05 971.68 369.32 C 962.11 365.59 952.07 362.13 942.02 358.98 C 931.98 355.82 921.67 353.17 911.07 350.93 C 900.48 348.69 889.76 345.64 878.67 344.33 C 867.58 343.02 868.07 328.66 864.78 319.22 C 861.48 309.79 858.11 298.78 854.99 289.01 C 851.87 279.23 849.48 268.76 845.98 259.02 C 842.47 249.29 840.07 238.93 836.93 229.07 C 833.78 219.22 830.65 209.15 827.78 199.22 C 824.90 189.29 821.02 178.51 818.32 168.68 C 815.62 158.85 811.56 148.45 808.98 139.02 C 806.40 129.60 801.82 117.88 799.93 109.07 C 798.03 100.27 791.76 80.54 787.33 92.33 C 782.90 104.12 782.83 112.34 779.33 123.33 C 775.82 134.32 774.39 143.69 771.32 154.32 C 768.25 164.95 766.13 174.55 762.99 184.99 C 759.86 195.43 758.14 206.63 754.98 216.98 C 751.81 227.32 749.65 237.54 746.93 247.93 C 744.20 258.31 740.81 267.87 738.33 278.33 C 735.84 288.78 732.91 298.54 729.99 308.99 C 727.08 319.44 724.81 330.30 721.92 340.92 C 719.03 351.55 704.45 350.03 695.02 353.02 C 685.59 356.02 674.53 358.82 665.02 362.02 C 655.52 365.23 645.91 368.91 636.67 372.67 C 627.44 376.43 617.57 380.36 608.69 384.69 C 599.82 389.03 591.43 393.26 583.08 398.08 C 574.72 402.90 566.65 407.44 558.75 412.75 C 550.84 418.05 543.03 422.80 536.00 429.00
C 525.92 424.93 515.26 421.50 505.07 417.93 C 494.89 414.35 485.18 410.48 475.02 406.98 C 464.87 403.47 454.72 400.08 444.68 396.32 C 434.64 392.56 424.39 389.09 414.22 385.78 C 404.05 382.46 394.34 377.80 384.07 374.93 C 373.81 372.05 364.27 366.74 354.02 363.98 C 343.78 361.21 333.91 355.71 323.68 353.32 C 313.45 350.93 303.69 343.53 293.22 342.78 C 282.76 342.03 296.80 357.50 302.08 362.92 C 307.36 368.34 314.42 379.23 320.25 385.75 C 326.08 392.28 333.16 400.78 339.08 407.92 C 345.00 415.06 351.21 423.36 357.25 430.75 C 363.29 438.15 370.06 445.31 376.08 452.92 C 382.11 460.52 388.26 467.69 394.70 475.30 C 401.14 482.91 405.94 490.30 413.08 497.92 C 420.23 505.54 423.21 512.58 431.70 520.30 C 440.18 528.03 431.77 536.76 425.92 544.92 C 420.06 553.08 415.72 561.71 410.31 570.31 C 404.89 578.90 401.36 588.27 396.31 597.31 C 391.25 606.34 388.32 616.44 383.92 625.92 C 379.53 635.40 376.43 647.14 372.93 656.93 C 369.43 666.71 369.35 680.69 358.68 683.68 C 348.01 686.66 337.71 690.18 327.07 693.07 C 316.44 695.97 306.27 699.72 295.68 702.68 C 285.09 705.64 274.65 709.09 264.07 712.07 C 253.50 715.06 243.20 718.49 232.67 721.67 C 222.15 724.85 211.49 727.58 201.02 731.02 C 190.56 734.47 179.81 736.94 169.22 740.22 C 158.64 743.51 148.75 746.68 138.02 750.02 C 127.30 753.37 117.18 755.56 106.22 759.22 C 95.26 762.88 86.59 764.91 75.02 769.02 C 63.45 773.14 55.99 772.67 43.22 778.22 C 30.45 783.77 48.42 790.17 58.78 791.22 C 69.14 792.27 80.25 798.28 90.99 800.01 C 101.74 801.73 113.07 805.88 123.93 808.07 C 134.78 810.27 145.45 814.21 156.33 816.67 C 167.21 819.14 178.18 822.15 188.99 825.01 C 199.81 827.86 211.06 830.37 221.93 833.07 C 232.80 835.78 243.53 838.85 254.33 841.67 C 265.13 844.50 276.39 846.75 286.99 850.01 C 297.59 853.27 310.50 854.69 320.78 858.22 C 331.06 861.76 343.63 862.36 352.99 867.01 C 362.35 871.66 359.28 888.25 363.01 897.99 C 366.73 907.73 367.74 920.49 371.68 930.32 C 375.62 940.15 378.12 951.14 382.22 960.78 C 386.33 970.41 390.19 980.04 394.68 989.32 C 399.16 998.60 403.13 1008.01 408.23 1016.77 C 413.33 1025.53 418.32 1033.94 423.75 1042.25 C 429.17 1050.57 434.67 1058.74 440.25 1066.75 C 445.82 1074.77 452.90 1081.62 458.70 1089.30 C 464.50 1096.99 471.80 1103.64 478.10 1110.90 C 484.40 1118.16 491.48 1124.43 498.75 1131.25 C 506.03 1138.07 512.98 1144.25 520.75 1150.25 C 528.52 1156.25 535.87 1162.31 543.92 1168.08 C 551.97 1173.85 560.47 1178.58 568.77 1184.23 C 577.07 1189.88 586.00 1194.11 594.92 1199.08 C 603.84 1204.05 613.26 1207.76 622.77 1212.23 C 632.28 1216.70 641.67 1220.51 651.78 1224.22 C 661.88 1227.94 672.30 1231.00 682.93 1234.07 C 693.56 1237.15 704.72 1240.06 715.93 1242.07 C 727.13 1244.08 739.31 1247.44 751.00 1248.00
C 773.85 1323.65 796.90 1399.17 819.00 1475.00
C 827.54 1472.41 827.30 1459.62 830.01 1451.01 C 832.72 1442.39 834.29 1431.94 837.02 1423.02 C 839.76 1414.11 841.51 1404.11 844.02 1395.02 C 846.54 1385.94 848.51 1377.19 851.02 1368.02 C 853.54 1358.86 855.62 1349.33 858.02 1340.02 C 860.42 1330.72 862.92 1321.55 865.07 1312.07 C 867.23 1302.60 870.38 1294.95 872.02 1285.02 C 873.67 1275.10 878.30 1267.85 879.07 1257.07 C 879.85 1246.29 888.88 1242.99 899.00 1242.00 C 909.11 1241.01 917.63 1238.21 926.93 1235.93 C 936.22 1233.64 945.01 1230.70 953.78 1227.78 C 962.54 1224.85 970.93 1221.43 979.31 1218.31 C 987.69 1215.18 994.80 1211.33 1002.77 1207.77 C 1010.74 1204.21 1018.36 1200.10 1025.92 1195.92 C 1033.49 1191.75 1041.18 1187.94 1048.25 1183.25 C 1055.33 1178.57 1061.83 1174.39 1068.75 1169.75 C 1075.67 1165.11 1082.15 1159.72 1088.75 1154.75 C 1095.36 1149.79 1101.67 1144.38 1107.92 1138.92 C 1114.17 1133.46 1119.67 1128.56 1125.75 1122.75 C 1131.83 1116.94 1137.26 1110.95 1142.75 1104.75 C 1148.24 1098.56 1154.20 1092.76 1159.25 1086.25 C 1164.30 1079.73 1169.99 1073.49 1174.70 1066.70 C 1179.40 1059.90 1184.08 1053.69 1188.70 1046.70 C 1193.31 1039.71 1197.62 1032.35 1202.08 1025.08 C 1206.53 1017.80 1210.27 1009.94 1214.23 1002.23 C 1218.18 994.52 1221.60 987.25 1225.22 979.22 C 1228.84 971.20 1232.07 962.63 1235.22 954.22 C 1238.38 945.82 1241.31 936.68 1244.07 928.07 C 1246.84 919.47 1248.51 910.09 1251.67 901.67 C 1254.84 893.25 1253.22 879.97 1257.23 872.23 C 1261.25 864.50 1275.60 866.93 1282.93 862.93 C 1290.25 858.92 1300.71 858.14 1308.93 854.93 C 1317.14 851.72 1327.33 849.88 1335.93 846.93 C 1344.52 843.98 1354.14 841.55 1362.93 838.93 C 1371.71 836.30 1380.15 833.73 1388.93 830.93 C 1397.71 828.12 1407.13 825.79 1415.93 822.93 C 1424.72 820.06 1434.06 817.33 1442.93 814.93 C 1451.79 812.52 1460.21 809.45 1468.93 806.93 C 1477.65 804.41 1487.43 801.48 1495.93 798.93 C 1504.43 796.37 1514.82 792.91 1522.93 790.93 C 1531.03 788.94 1542.65 783.83 1549.78 782.78 C 1556.90 781.72 1574.77 775.24 1566.67 770.33 C 1558.58 765.41 1547.76 766.38 1539.01 762.99 C 1530.26 759.61 1519.98 758.87 1511.01 755.99 C 1502.03 753.12 1493.10 751.63 1484.01 748.99 C 1474.91 746.35 1465.11 744.82 1456.02 741.98 C 1446.94 739.13 1437.19 737.48 1428.02 734.98 C 1418.86 732.47 1410.23 730.39 1401.02 727.98 C 1391.82 725.56 1382.28 723.35 1373.02 720.98 C 1363.76 718.60 1354.39 716.16 1345.07 713.93 C 1335.76 711.69 1327.48 709.02 1318.02 706.98 C 1308.57 704.93 1299.80 701.75 1290.07 699.93 C 1280.34 698.10 1272.43 693.91 1262.07 692.93 C 1251.71 691.94 1248.97 682.96 1247.33 673.67 C 1245.68 664.39 1241.75 655.74 1238.98 647.02 C 1236.20 638.31 1232.99 629.54 1229.77 621.23 C 1226.55 612.91 1222.55 606.02 1218.92 598.08 C 1215.30 590.13 1211.14 582.57 1206.92 575.08 C 1202.70 567.58 1198.78 559.92 1194.25 552.75 C 1189.73 545.57 1185.09 539.16 1181.00 532.00
M 832.00 345.00 
C 866.63 348.35 908.74 353.97 941.02 364.98 C 973.31 375.98 1003.44 386.53 1031.70 404.31 C 1059.95 422.08 1075.25 444.77 1094.75 471.25 C 1114.26 497.72 1126.07 526.20 1137.78 558.22 C 1149.49 590.24 1155.23 634.85 1155.00 671.00 C 1154.77 707.15 1147.91 749.14 1136.22 781.22 C 1124.53 813.30 1111.27 840.31 1092.23 867.23 C 1073.19 894.15 1055.14 913.35 1029.75 934.75 C 1004.37 956.16 980.09 970.03 949.32 984.32 C 918.55 998.61 882.19 1007.97 847.00 1012.00 C 811.81 1016.03 763.96 1014.10 730.33 1005.67 C 696.70 997.25 665.74 985.84 636.77 969.23 C 607.80 952.62 586.98 936.53 563.25 912.75 C 539.51 888.97 523.32 868.26 506.75 839.25 C 490.17 810.25 478.50 779.54 470.07 745.93 C 461.65 712.32 459.88 662.28 463.78 626.78 C 467.68 591.28 478.06 556.20 491.92 524.92 C 505.79 493.65 520.95 471.45 542.25 445.25 C 563.54 419.05 583.89 401.11 615.23 388.23 C 646.57 375.34 677.05 361.31 712.07 355.07 C 747.09 348.84 793.00 341.23 831.00 345.00 Z"/>
</g>
<g fill="None" fill-opacity="0.0" stroke="#000000" stroke-opacity="1.00" stroke-width="0.3"><path d="
M 831.00 345.00 
C 793.00 341.23 747.09 348.84 712.07 355.07 C 677.05 361.31 646.57 375.34 615.23 388.23 C 583.89 401.11 563.54 419.05 542.25 445.25 C 520.95 471.45 505.79 493.65 491.92 524.92 C 478.06 556.20 467.68 591.28 463.78 626.78 C 459.88 662.28 461.65 712.32 470.07 745.93 C 478.50 779.54 490.17 810.25 506.75 839.25 C 523.32 868.26 539.51 888.97 563.25 912.75 C 586.98 936.53 607.80 952.62 636.77 969.23 C 665.74 985.84 696.70 997.25 730.33 1005.67 C 763.96 1014.10 811.81 1016.03 847.00 1012.00 C 882.19 1007.97 918.55 998.61 949.32 984.32 C 980.09 970.03 1004.37 956.16 1029.75 934.75 C 1055.14 913.35 1073.19 894.15 1092.23 867.23 C 1111.27 840.31 1124.53 813.30 1136.22 781.22 C 1147.91 749.14 1154.77 707.15 1155.00 671.00 C 1155.23 634.85 1149.49 590.24 1137.78 558.22 C 1126.07 526.20 1114.26 497.72 1094.75 471.25 C 1075.25 444.77 1059.95 422.08 1031.70 404.31 C 1003.44 386.53 973.31 375.98 941.02 364.98 C 908.74 353.97 866.63 348.35 832.00 345.00 Z"/>
</g>
<g fill="#000000" fill-opacity="1.00" stroke="None">
<path d="
M 0.00 1600.00 
L 1600.00 1600.00
L 1600.00 0.00
L 0.00 0.00
L 0.00 1600.00
M 1181.00 532.00 
C 1185.09 539.16 1189.73 545.57 1194.25 552.75 C 1198.78 559.92 1202.70 567.58 1206.92 575.08 C 1211.14 582.57 1215.30 590.13 1218.92 598.08 C 1222.55 606.02 1226.55 612.91 1229.77 621.23 C 1232.99 629.54 1236.20 638.31 1238.98 647.02 C 1241.75 655.74 1245.68 664.39 1247.33 673.67 C 1248.97 682.96 1251.71 691.94 1262.07 692.93 C 1272.43 693.91 1280.34 698.10 1290.07 699.93 C 1299.80 701.75 1308.57 704.93 1318.02 706.98 C 1327.48 709.02 1335.76 711.69 1345.07 713.93 C 1354.39 716.16 1363.76 718.60 1373.02 720.98 C 1382.28 723.35 1391.82 725.56 1401.02 727.98 C 1410.23 730.39 1418.86 732.47 1428.02 734.98 C 1437.19 737.48 1446.94 739.13 1456.02 741.98 C 1465.11 744.82 1474.91 746.35 1484.01 748.99 C 1493.10 751.63 1502.03 753.12 1511.01 755.99 C 1519.98 758.87 1530.26 759.61 1539.01 762.99 C 1547.76 766.38 1558.58 765.41 1566.67 770.33 C 1574.77 775.24 1556.90 781.72 1549.78 782.78 C 1542.65 783.83 1531.03 788.94 1522.93 790.93 C 1514.82 792.91 1504.43 796.37 1495.93 798.93 C 1487.43 801.48 1477.65 804.41 1468.93 806.93 C 1460.21 809.45 1451.79 812.52 1442.93 814.93 C 1434.06 817.33 1424.72 820.06 1415.93 822.93 C 1407.13 825.79 1397.71 828.12 1388.93 830.93 C 1380.15 833.73 1371.71 836.30 1362.93 838.93 C 1354.14 841.55 1344.52 843.98 1335.93 846.93 C 1327.33 849.88 1317.14 851.72 1308.93 854.93 C 1300.71 858.14 1290.25 858.92 1282.93 862.93 C 1275.60 866.93 1261.25 864.50 1257.23 872.23 C 1253.22 879.97 1254.84 893.25 1251.67 901.67 C 1248.51 910.09 1246.84 919.47 1244.07 928.07 C 1241.31 936.68 1238.38 945.82 1235.22 954.22 C 1232.07 962.63 1228.84 971.20 1225.22 979.22 C 1221.60 987.25 1218.18 994.52 1214.23 1002.23 C 1210.27 1009.94 1206.53 1017.80 1202.08 1025.08 C 1197.62 1032.35 1193.31 1039.71 1188.70 1046.70 C 1184.08 1053.69 1179.40 1059.90 1174.70 1066.70 C 1169.99 1073.49 1164.30 1079.73 1159.25 1086.25 C 1154.20 1092.76 1148.24 1098.56 1142.75 1104.75 C 1137.26 1110.95 1131.83 1116.94 1125.75 1122.75 C 1119.67 1128.56 1114.17 1133.46 1107.92 1138.92 C 1101.67 1144.38 1095.36 1149.79 1088.75 1154.75 C 1082.15 1159.72 1075.67 1165.11 1068.75 1169.75 C 1061.83 1174.39 1055.33 1178.57 1048.25 1183.25 C 1041.18 1187.94 1033.49 1191.75 1025.92 1195.92 C 1018.36 1200.10 1010.74 1204.21 1002.77 1207.77 C 994.80 1211.33 987.69 1215.18 979.31 1218.31 C 970.93 1221.43 962.54 1224.85 953.78 1227.78 C 945.01 1230.70 936.22 1233.64 926.93 1235.93 C 917.63 1238.21 909.11 1241.01 899.00 1242.00 C 888.88 1242.99 879.85 1246.29 879.07 1257.07 C 878.30 1267.85 873.67 1275.10 872.02 1285.02 C 870.38 1294.95 867.23 1302.60 865.07 1312.07 C 862.92 1321.55 860.42 1330.72 858.02 1340.02 C 855.62 1349.33 853.54 1358.86 851.02 1368.02 C 848.51 1377.19 846.54 1385.94 844.02 1395.02 C 841.51 1404.11 839.76 1414.11 837.02 1423.02 C 834.29 1431.94 832.72 1442.39 830.01 1451.01 C 827.30 1459.62 827.54 1472.41 819.00 1475.00
C 796.90 1399.17 773.85 1323.65 751.00 1248.00
C 739.31 1247.44 727.13 1244.08 715.93 1242.07 C 704.72 1240.06 693.56 1237.15 682.93 1234.07 C 672.30 1231.00 661.88 1227.94 651.78 1224.22 C 641.67 1220.51 632.28 1216.70 622.77 1212.23 C 613.26 1207.76 603.84 1204.05 594.92 1199.08 C 586.00 1194.11 577.07 1189.88 568.77 1184.23 C 560.47 1178.58 551.97 1173.85 543.92 1168.08 C 535.87 1162.31 528.52 1156.25 520.75 1150.25 C 512.98 1144.25 506.03 1138.07 498.75 1131.25 C 491.48 1124.43 484.40 1118.16 478.10 1110.90 C 471.80 1103.64 464.50 1096.99 458.70 1089.30 C 452.90 1081.62 445.82 1074.77 440.25 1066.75 C 434.67 1058.74 429.17 1050.57 423.75 1042.25 C 418.32 1033.94 413.33 1025.53 408.23 1016.77 C 403.13 1008.01 399.16 998.60 394.68 989.32 C 390.19 980.04 386.33 970.41 382.22 960.78 C 378.12 951.14 375.62 940.15 371.68 930.32 C 367.74 920.49 366.73 907.73 363.01 897.99 C 359.28 888.25 362.35 871.66 352.99 867.01 C 343.63 862.36 331.06 861.76 320.78 858.22 C 310.50 854.69 297.59 853.27 286.99 850.01 C 276.39 846.75 265.13 844.50 254.33 841.67 C 243.53 838.85 232.80 835.78 221.93 833.07 C 211.06 830.37 199.81 827.86 188.99 825.01 C 178.18 822.15 167.21 819.14 156.33 816.67 C 145.45 814.21 134.78 810.27 123.93 808.07 C 113.07 805.88 101.74 801.73 90.99 800.01 C 80.25 798.28 69.14 792.27 58.78 791.22 C 48.42 790.17 30.45 783.77 43.22 778.22 C 55.99 772.67 63.45 773.14 75.02 769.02 C 86.59 764.91 95.26 762.88 106.22 759.22 C 117.18 755.56 127.30 753.37 138.02 750.02 C 148.75 746.68 158.64 743.51 169.22 740.22 C 179.81 736.94 190.56 734.47 201.02 731.02 C 211.49 727.58 222.15 724.85 232.67 721.67 C 243.20 718.49 253.50 715.06 264.07 712.07 C 274.65 709.09 285.09 705.64 295.68 702.68 C 306.27 699.72 316.44 695.97 327.07 693.07 C 337.71 690.18 348.01 686.66 358.68 683.68 C 369.35 680.69 369.43 666.71 372.93 656.93 C 376.43 647.14 379.53 635.40 383.92 625.92 C 388.32 616.44 391.25 606.34 396.31 597.31 C 401.36 588.27 404.89 578.90 410.31 570.31 C 415.72 561.71 420.06 553.08 425.92 544.92 C 431.77 536.76 440.18 528.03 431.70 520.30 C 423.21 512.58 420.23 505.54 413.08 497.92 C 405.94 490.30 401.14 482.91 394.70 475.30 C 388.26 467.69 382.11 460.52 376.08 452.92 C 370.06 445.31 363.29 438.15 357.25 430.75 C 351.21 423.36 345.00 415.06 339.08 407.92 C 333.16 400.78 326.08 392.28 320.25 385.75 C 314.42 379.23 307.36 368.34 302.08 362.92 C 296.80 357.50 282.76 342.03 293.22 342.78 C 303.69 343.53 313.45 350.93 323.68 353.32 C 333.91 355.71 343.78 361.21 354.02 363.98 C 364.27 366.74 373.81 372.05 384.07 374.93 C 394.34 377.80 404.05 382.46 414.22 385.78 C 424.39 389.09 434.64 392.56 444.68 396.32 C 454.72 400.08 464.87 403.47 475.02 406.98 C 485.18 410.48 494.89 414.35 505.07 417.93 C 515.26 421.50 525.92 424.93 536.00 429.00
C 543.03 422.80 550.84 418.05 558.75 412.75 C 566.65 407.44 574.72 402.90 583.08 398.08 C 591.43 393.26 599.82 389.03 608.69 384.69 C 617.57 380.36 627.44 376.43 636.67 372.67 C 645.91 368.91 655.52 365.23 665.02 362.02 C 674.53 358.82 685.59 356.02 695.02 353.02 C 704.45 350.03 719.03 351.55 721.92 340.92 C 724.81 330.30 727.08 319.44 729.99 308.99 C 732.91 298.54 735.84 288.78 738.33 278.33 C 740.81 267.87 744.20 258.31 746.93 247.93 C 749.65 237.54 751.81 227.32 754.98 216.98 C 758.14 206.63 759.86 195.43 762.99 184.99 C 766.13 174.55 768.25 164.95 771.32 154.32 C 774.39 143.69 775.82 134.32 779.33 123.33 C 782.83 112.34 782.90 104.12 787.33 92.33 C 791.76 80.54 798.03 100.27 799.93 109.07 C 801.82 117.88 806.40 129.60 808.98 139.02 C 811.56 148.45 815.62 158.85 818.32 168.68 C 821.02 178.51 824.90 189.29 827.78 199.22 C 830.65 209.15 833.78 219.22 836.93 229.07 C 840.07 238.93 842.47 249.29 845.98 259.02 C 849.48 268.76 851.87 279.23 854.99 289.01 C 858.11 298.78 861.48 309.79 864.78 319.22 C 868.07 328.66 867.58 343.02 878.67 344.33 C 889.76 345.64 900.48 348.69 911.07 350.93 C 921.67 353.17 931.98 355.82 942.02 358.98 C 952.07 362.13 962.11 365.59 971.68 369.32 C 981.25 373.05 990.20 376.38 999.22 380.78 C 1008.25 385.17 1016.61 388.78 1025.08 393.92 C 1033.55 399.05 1041.83 401.65 1049.75 408.25 C 1057.66 414.86 1066.50 415.77 1074.23 423.77 C 1081.96 431.77 1090.01 429.49 1099.23 424.23 C 1108.45 418.97 1117.55 417.39 1126.69 412.70 C 1135.84 408.00 1145.56 405.10 1154.70 400.69 C 1163.83 396.29 1172.96 393.30 1182.08 389.08 C 1191.19 384.85 1200.06 381.25 1209.23 377.23 C 1218.40 373.21 1227.45 369.70 1236.68 365.68 C 1245.90 361.65 1255.25 357.42 1264.69 353.69 C 1274.14 349.97 1282.26 345.32 1292.07 342.07 C 1301.88 338.83 1308.56 332.45 1319.22 330.22 C 1329.88 328.00 1318.37 343.20 1313.25 349.25 C 1308.13 355.29 1302.28 365.98 1296.75 372.75 C 1291.21 379.51 1285.80 388.05 1280.25 395.25 C 1274.69 402.44 1269.80 410.79 1264.08 418.08 C 1258.36 425.37 1253.38 433.28 1247.75 440.75 C 1242.12 448.21 1236.63 456.54 1231.08 464.08 C 1225.54 471.62 1220.05 479.09 1214.70 486.70 C 1209.34 494.30 1203.58 501.63 1198.23 509.23 C 1192.88 516.83 1187.54 524.40 1181.75 531.75 Z"/>
</g>
<g fill="#FFFFFF" fill-opacity="1.00" stroke="None">
<path d="
M 1181.75 531.75 
C 1187.54 524.40 1192.88 516.83 1198.23 509.23 C 1203.58 501.63 1209.34 494.30 1214.70 486.70 C 1220.05 479.09 1225.54 471.62 1231.08 464.08 C 1236.63 456.54 1242.12 448.21 1247.75 440.75 C 1253.38 433.28 1258.36 425.37 1264.08 418.08 C 1269.80 410.79 1274.69 402.44 1280.25 395.25 C 1285.80 388.05 1291.21 379.51 1296.75 372.75 C 1302.28 365.98 1308.13 355.29 1313.25 349.25 C 1318.37 343.20 1329.88 328.00 1319.22 330.22 C 1308.56 332.45 1301.88 338.83 1292.07 342.07 C 1282.26 345.32 1274.14 349.97 1264.69 353.69 C 1255.25 357.42 1245.90 361.65 1236.68 365.68 C 1227.45 369.70 1218.40 373.21 1209.23 377.23 C 1200.06 381.25 1191.19 384.85 1182.08 389.08 C 1172.96 393.30 1163.83 396.29 1154.70 400.69 C 1145.56 405.10 1135.84 408.00 1126.69 412.70 C 1117.55 417.39 1108.45 418.97 1099.23 424.23 C 1090.01 429.49 1081.96 431.77 1074.23 423.77 C 1066.50 415.77 1057.66 414.86 1049.75 408.25 C 1041.83 401.65 1033.55 399.05 1025.08 393.92 C 1016.61 388.78 1008.25 385.17 999.22 380.78 C 990.20 376.38 981.25 373.05 971.68 369.32 C 962.11 365.59 952.07 362.13 942.02 358.98 C 931.98 355.82 921.67 353.17 911.07 350.93 C 900.48 348.69 889.76 345.64 878.67 344.33 C 867.58 343.02 868.07 328.66 864.78 319.22 C 861.48 309.79 858.11 298.78 854.99 289.01 C 851.87 279.23 849.48 268.76 845.98 259.02 C 842.47 249.29 840.07 238.93 836.93 229.07 C 833.78 219.22 830.65 209.15 827.78 199.22 C 824.90 189.29 821.02 178.51 818.32 168.68 C 815.62 158.85 811.56 148.45 808.98 139.02 C 806.40 129.60 801.82 117.88 799.93 109.07 C 798.03 100.27 791.76 80.54 787.33 92.33 C 782.90 104.12 782.83 112.34 779.33 123.33 C 775.82 134.32 774.39 143.69 771.32 154.32 C 768.25 164.95 766.13 174.55 762.99 184.99 C 759.86 195.43 758.14 206.63 754.98 216.98 C 751.81 227.32 749.65 237.54 746.93 247.93 C 744.20 258.31 740.81 267.87 738.33 278.33 C 735.84 288.78 732.91 298.54 729.99 308.99 C 727.08 319.44 724.81 330.30 721.92 340.92 C 719.03 351.55 704.45 350.03 695.02 353.02 C 685.59 356.02 674.53 358.82 665.02 362.02 C 655.52 365.23 645.91 368.91 636.67 372.67 C 627.44 376.43 617.57 380.36 608.69 384.69 C 599.82 389.03 591.43 393.26 583.08 398.08 C 574.72 402.90 566.65 407.44 558.75 412.75 C 550.84 418.05 543.03 422.80 536.00 429.00
C 525.92 424.93 515.26 421.50 505.07 417.93 C 494.89 414.35 485.18 410.48 475.02 406.98 C 464.87 403.47 454.72 400.08 444.68 396.32 C 434.64 392.56 424.39 389.09 414.22 385.78 C 404.05 382.46 394.34 377.80 384.07 374.93 C 373.81 372.05 364.27 366.74 354.02 363.98 C 343.78 361.21 333.91 355.71 323.68 353.32 C 313.45 350.93 303.69 343.53 293.22 342.78 C 282.76 342.03 296.80 357.50 302.08 362.92 C 307.36 368.34 314.42 379.23 320.25 385.75 C 326.08 392.28 333.16 400.78 339.08 407.92 C 345.00 415.06 351.21 423.36 357.25 430.75 C 363.29 438.15 370.06 445.31 376.08 452.92 C 382.11 460.52 388.26 467.69 394.70 475.30 C 401.14 482.91 405.94 490.30 413.08 497.92 C 420.23 505.54 423.21 512.58 431.70 520.30 C 440.18 528.03 431.77 536.76 425.92 544.92 C 420.06 553.08 415.72 561.71 410.31 570.31 C 404.89 578.90 401.36 588.27 396.31 597.31 C 391.25 606.34 388.32 616.44 383.92 625.92 C 379.53 635.40 376.43 647.14 372.93 656.93 C 369.43 666.71 369.35 680.69 358.68 683.68 C 348.01 686.66 337.71 690.18 327.07 693.07 C 316.44 695.97 306.27 699.72 295.68 702.68 C 285.09 705.64 274.65 709.09 264.07 712.07 C 253.50 715.06 243.20 718.49 232.67 721.67 C 222.15 724.85 211.49 727.58 201.02 731.02 C 190.56 734.47 179.81 736.94 169.22 740.22 C 158.64 743.51 148.75 746.68 138.02 750.02 C 127.30 753.37 117.18 755.56 106.22 759.22 C 95.26 762.88 86.59 764.91 75.02 769.02 C 63.45 773.14 55.99 772.67 43.22 778.22 C 30.45 783.77 48.42 790.17 58.78 791.22 C 69.14 792.27 80.25 798.28 90.99 800.01 C 101.74 801.73 113.07 805.88 123.93 808.07 C 134.78 810.27 145.45 814.21 156.33 816.67 C 167.21 819.14 178.18 822.15 188.99 825.01 C 199.81 827.86 211.06 830.37 221.93 833.07 C 232.80 835.78 243.53 838.85 254.33 841.67 C 265.13 844.50 276.39 846.75 286.99 850.01 C 297.59 853.27 310.50 854.69 320.78 858.22 C 331.06 861.76 343.63 862.36 352.99 867.01 C 362.35 871.66 359.28 888.25 363.01 897.99 C 366.73 907.73 367.74 920.49 371.68 930.32 C 375.62 940.15 378.12 951.14 382.22 960.78 C 386.33 970.41 390.19 980.04 394.68 989.32 C 399.16 998.60 403.13 1008.01 408.23 1016.77 C 413.33 1025.53 418.32 1033.94 423.75 1042.25 C 429.17 1050.57 434.67 1058.74 440.25 1066.75 C 445.82 1074.77 452.90 1081.62 458.70 1089.30 C 464.50 1096.99 471.80 1103.64 478.10 1110.90 C 484.40 1118.16 491.48 1124.43 498.75 1131.25 C 506.03 1138.07 512.98 1144.25 520.75 1150.25 C 528.52 1156.25 535.87 1162.31 543.92 1168.08 C 551.97 1173.85 560.47 1178.58 568.77 1184.23 C 577.07 1189.88 586.00 1194.11 594.92 1199.08 C 603.84 1204.05 613.26 1207.76 622.77 1212.23 C 632.28 1216.70 641.67 1220.51 651.78 1224.22 C 661.88 1227.94 672.30 1231.00 682.93 1234.07 C 693.56 1237.15 704.72 1240.06 715.93 1242.07 C 727.13 1244.08 739.31 1247.44 751.00 1248.00
C 773.85 1323.65 796.90 1399.17 819.00 1475.00
C 827.54 1472.41 827.30 1459.62 830.01 1451.01 C 832.72 1442.39 834.29 1431.94 837.02 1423.02 C 839.76 1414.11 841.51 1404.11 844.02 1395.02 C 846.54 1385.94 848.51 1377.19 851.02 1368.02 C 853.54 1358.86 855.62 1349.33 858.02 1340.02 C 860.42 1330.72 862.92 1321.55 865.07 1312.07 C 867.23 1302.60 870.38 1294.95 872.02 1285.02 C 873.67 1275.10 878.30 1267.85 879.07 1257.07 C 879.85 1246.29 888.88 1242.99 899.00 1242.00 C 909.11 1241.01 917.63 1238.21 926.93 1235.93 C 936.22 1233.64 945.01 1230.70 953.78 1227.78 C 962.54 1224.85 970.93 1221.43 979.31 1218.31 C 987.69 1215.18 994.80 1211.33 1002.77 1207.77 C 1010.74 1204.21 1018.36 1200.10 1025.92 1195.92 C 1033.49 1191.75 1041.18 1187.94 1048.25 1183.25 C 1055.33 1178.57 1061.83 1174.39 1068.75 1169.75 C 1075.67 1165.11 1082.15 1159.72 1088.75 1154.75 C 1095.36 1149.79 1101.67 1144.38 1107.92 1138.92 C 1114.17 1133.46 1119.67 1128.56 1125.75 1122.75 C 1131.83 1116.94 1137.26 1110.95 1142.75 1104.75 C 1148.24 1098.56 1154.20 1092.76 1159.25 1086.25 C 1164.30 1079.73 1169.99 1073.49 1174.70 1066.70 C 1179.40 1059.90 1184.08 1053.69 1188.70 1046.70 C 1193.31 1039.71 1197.62 1032.35 1202.08 1025.08 C 1206.53 1017.80 1210.27 1009.94 1214.23 1002.23 C 1218.18 994.52 1221.60 987.25 1225.22 979.22 C 1228.84 971.20 1232.07 962.63 1235.22 954.22 C 1238.38 945.82 1241.31 936.68 1244.07 928.07 C 1246.84 919.47 1248.51 910.09 1251.67 901.67 C 1254.84 893.25 1253.22 879.97 1257.23 872.23 C 1261.25 864.50 1275.60 866.93 1282.93 862.93 C 1290.25 858.92 1300.71 858.14 1308.93 854.93 C 1317.14 851.72 1327.33 849.88 1335.93 846.93 C 1344.52 843.98 1354.14 841.55 1362.93 838.93 C 1371.71 836.30 1380.15 833.73 1388.93 830.93 C 1397.71 828.12 1407.13 825.79 1415.93 822.93 C 1424.72 820.06 1434.06 817.33 1442.93 814.93 C 1451.79 812.52 1460.21 809.45 1468.93 806.93 C 1477.65 804.41 1487.43 801.48 1495.93 798.93 C 1504.43 796.37 1514.82 792.91 1522.93 790.93 C 1531.03 788.94 1542.65 783.83 1549.78 782.78 C 1556.90 781.72 1574.77 775.24 1566.67 770.33 C 1558.58 765.41 1547.76 766.38 1539.01 762.99 C 1530.26 759.61 1519.98 758.87 1511.01 755.99 C 1502.03 753.12 1493.10 751.63 1484.01 748.99 C 1474.91 746.35 1465.11 744.82 1456.02 741.98 C 1446.94 739.13 1437.19 737.48 1428.02 734.98 C 1418.86 732.47 1410.23 730.39 1401.02 727.98 C 1391.82 725.56 1382.28 723.35 1373.02 720.98 C 1363.76 718.60 1354.39 716.16 1345.07 713.93 C 1335.76 711.69 1327.48 709.02 1318.02 706.98 C 1308.57 704.93 1299.80 701.75 1290.07 699.93 C 1280.34 698.10 1272.43 693.91 1262.07 692.93 C 1251.71 691.94 1248.97 682.96 1247.33 673.67 C 1245.68 664.39 1241.75 655.74 1238.98 647.02 C 1236.20 638.31 1232.99 629.54 1229.77 621.23 C 1226.55 612.91 1222.55 606.02 1218.92 598.08 C 1215.30 590.13 1211.14 582.57 1206.92 575.08 C 1202.70 567.58 1198.78 559.92 1194.25 552.75 C 1189.73 545.57 1185.09 539.16 1181.00 532.00
M 832.00 345.00 
C 866.63 348.35 908.74 353.97 941.02 364.98 C 973.31 375.98 1003.44 386.53 1031.70 404.31 C 1059.95 422.08 1075.25 444.77 1094.75 471.25 C 1114.26 497.72 1126.07 526.20 1137.78 558.22 C 1149.49 590.24 1155.23 634.85 1155.00 671.00 C 1154.77 707.15 1147.91 749.14 1136.22 781.22 C 1124.53 813.30 1111.27 840.31 1092.23 867.23 C 1073.19 894.15 1055.14 913.35 1029.75 934.75 C 1004.37 956.16 980.09 970.03 949.32 984.32 C 918.55 998.61 882.19 1007.97 847.00 1012.00 C 811.81 1016.03 763.96 1014.10 730.33 1005.67 C 696.70 997.25 665.74 985.84 636.77 969.23 C 607.80 952.62 586.98 936.53 563.25 912.75 C 539.51 888.97 523.32 868.26 506.75 839.25 C 490.17 810.25 478.50 779.54 470.07 745.93 C 461.65 712.32 459.88 662.28 463.78 626.78 C 467.68 591.28 478.06 556.20 491.92 524.92 C 505.79 493.65 520.95 471.45 542.25 445.25 C 563.54 419.05 583.89 401.11 615.23 388.23 C 646.57 375.34 677.05 361.31 712.07 355.07 C 747.09 348.84 793.00 341.23 831.00 345.00 Z"/>
</g>
<g fill="#000000" fill-opacity="1.00" stroke="None">
<path d="
M 831.00 345.00 
C 793.00 341.23 747.09 348.84 712.07 355.07 C 677.05 361.31 646.57 375.34 615.23 388.23 C 583.89 401.11 563.54 419.05 542.25 445.25 C 520.95 471.45 505.79 493.65 491.92 524.92 C 478.06 556.20 467.68 591.28 463.78 626.78 C 459.88 662.28 461.65 712.32 470.07 745.93 C 478.50 779.54 490.17 810.25 506.75 839.25 C 523.32 868.26 539.51 888.97 563.25 912.75 C 586.98 936.53 607.80 952.62 636.77 969.23 C 665.74 985.84 696.70 997.25 730.33 1005.67 C 763.96 1014.10 811.81 1016.03 847.00 1012.00 C 882.19 1007.97 918.55 998.61 949.32 984.32 C 980.09 970.03 1004.37 956.16 1029.75 934.75 C 1055.14 913.35 1073.19 894.15 1092.23 867.23 C 1111.27 840.31 1124.53 813.30 1136.22 781.22 C 1147.91 749.14 1154.77 707.15 1155.00 671.00 C 1155.23 634.85 1149.49 590.24 1137.78 558.22 C 1126.07 526.20 1114.26 497.72 1094.75 471.25 C 1075.25 444.77 1059.95 422.08 1031.70 404.31 C 1003.44 386.53 973.31 375.98 941.02 364.98 C 908.74 353.97 866.63 348.35 832.00 345.00 Z"/>
</g>
</svg>